<svg xmlns="http://www.w3.org/2000/svg" viewBox="0 0 297.91 364"><defs><style>.cls-1{fill:none;}.cls-2{fill:#20b7e8;}.cls-3{fill:#ffcc09;}.cls-4{fill:#a0ffed;}.cls-5,.cls-7{font-size:42.74px;}.cls-5,.cls-7,.cls-9{fill:#222;}.cls-5{font-family:FuturaPT-Heavy, Futura PT;font-weight:800;}.cls-6{letter-spacing:-0.02em;}.cls-7{font-family:FuturaPT-Book, Futura PT;}.cls-8{letter-spacing:-0.01em;}.cls-9{font-size:62.37px;font-family:FuturaPT-Light, Futura PT;font-weight:300;}</style></defs><title>Asset 1</title><g id="Layer_2" data-name="Layer 2"><g id="Layer_1-2" data-name="Layer 1"><polygon id="tr0" class="cls-1" points="148.96 0 148.96 86 223.44 43 148.96 0"/><polygon id="tr1" class="cls-1" points="148.96 0 148.96 86 74.48 43 148.96 0"/><polygon id="tr2" class="cls-2" points="74.48 43 74.48 129 148.96 86 74.48 43"/><polygon id="tr3" class="cls-1" points="74.48 43 74.48 129 0 86 74.48 43"/><polygon id="tr4" class="cls-1" points="0 86 0 172 74.48 129 0 86"/><polygon id="tr5" class="cls-1" points="223.44 43 223.44 129 297.91 86 223.44 43"/><polygon id="tr6" class="cls-3" points="223.44 43 223.44 129 148.96 86 223.44 43"/><polygon id="tr7" class="cls-4" points="148.96 86 148.96 172 223.44 129 148.96 86"/><polygon id="tr8" class="cls-4" points="148.96 86 148.96 172 74.48 129 148.96 86"/><polygon id="tr9" class="cls-4" points="74.48 129 74.48 215 148.96 172 74.48 129"/><polygon id="tr10" class="cls-2" points="74.48 129 74.48 215 0 172 74.48 129"/><polygon id="tr11" class="cls-1" points="0 172 0 258 74.48 215 0 172"/><polygon id="tr12" class="cls-1" points="297.91 86 297.91 172 223.44 129 297.91 86"/><polygon id="tr13" class="cls-1" points="223.44 129 223.44 215 297.91 172 223.44 129"/><polygon id="tr14" class="cls-1" points="223.44 129 223.44 215 148.96 172 223.44 129"/><polygon id="tr15" class="cls-3" points="148.96 172 148.96 258 223.44 215 148.96 172"/><polygon id="tr16" class="cls-4" points="148.96 172 148.96 258 74.48 215 148.96 172"/><polygon id="tr17" class="cls-1" points="74.48 215 74.48 301 148.96 258 74.48 215"/><polygon id="tr18" class="cls-1" points="74.48 215 74.48 301 0 258 74.48 215"/><polygon id="tr19" class="cls-1" points="297.91 172 297.91 258 223.44 215 297.91 172"/><polygon id="tr20" class="cls-1" points="223.44 215 223.44 301 297.91 258 223.44 215"/><polygon id="tr21" class="cls-1" points="223.44 215 223.44 301 148.96 258 223.44 215"/><polygon id="tr22" class="cls-1" points="110.57 278 110.57 364 185.05 321 110.57 278"/><polygon id="tr23" class="cls-1" points="185.05 278 185.05 364 110.57 321 185.05 278"/><text class="cls-5" transform="translate(9.16 310.89)">fo<tspan class="cls-6" x="39.24" y="0">r</tspan><tspan x="55.01" y="0">ef</tspan><tspan class="cls-6" x="92.33" y="0">r</tspan><tspan x="108.1" y="0">ont</tspan></text><text class="cls-7" transform="translate(185.91 330.89)"><tspan class="cls-8">d</tspan><tspan x="22.06" y="0">igital</tspan></text><text class="cls-9" transform="translate(168.91 322.98)">/</text></g></g></svg>